<svg width="20" height="23" viewBox="0 0 20 23" fill="none" xmlns="http://www.w3.org/2000/svg">
<path d="M0 21.4286C0 21.8075 0.15051 22.1708 0.418419 22.4387C0.686328 22.7066 1.04969 22.8571 1.42857 22.8571C1.80745 22.8571 2.17081 22.7066 2.43872 22.4387C2.70663 22.1708 2.85714 21.8075 2.85714 21.4286H0ZM2.85714 1.42857C2.85714 1.04969 2.70663 0.686328 2.43872 0.418419C2.17081 0.15051 1.80745 0 1.42857 0C1.04969 0 0.686328 0.15051 0.418419 0.418419C0.15051 0.686328 0 1.04969 0 1.42857H2.85714ZM8.58429 21.4286C8.58429 21.8075 8.7348 22.1708 9.0027 22.4387C9.27061 22.7066 9.63398 22.8571 10.0129 22.8571C10.3917 22.8571 10.7551 22.7066 11.023 22.4387C11.2909 22.1708 11.4414 21.8075 11.4414 21.4286H8.58429ZM11.4414 7.14286C11.4414 6.76398 11.2909 6.40061 11.023 6.13271C10.7551 5.8648 10.3917 5.71429 10.0129 5.71429C9.63398 5.71429 9.27061 5.8648 9.0027 6.13271C8.7348 6.40061 8.58429 6.76398 8.58429 7.14286H11.4414ZM17.1429 21.4286C17.1429 21.8075 17.2934 22.1708 17.5613 22.4387C17.8292 22.7066 18.1925 22.8571 18.5714 22.8571C18.9503 22.8571 19.3137 22.7066 19.5816 22.4387C19.8495 22.1708 20 21.8075 20 21.4286H17.1429ZM20 11.4286C20 11.0497 19.8495 10.6863 19.5816 10.4184C19.3137 10.1505 18.9503 10 18.5714 10C18.1925 10 17.8292 10.1505 17.5613 10.4184C17.2934 10.6863 17.1429 11.0497 17.1429 11.4286H20ZM2.85714 21.4286V1.42857H0V21.4286H2.85714ZM11.4414 21.4286V7.14286H8.58429V21.4286H11.4414ZM20 21.4286V11.4286H17.1429V21.4286H20Z" fill="#1B4965"/>
</svg>
