<svg width="55" height="62" viewBox="0 0 55 62" fill="none" xmlns="http://www.w3.org/2000/svg">
<g opacity="0.5">
<path d="M25.1826 34.0736C24.9773 34.0736 24.7866 33.9921 24.6253 33.8127L23.056 32.0674C22.748 31.7249 22.748 31.1703 23.056 30.8278C23.364 30.4852 23.8626 30.4852 24.1706 30.8278L25.1826 31.9532L26.1946 30.8278C26.5026 30.4852 27.0013 30.4852 27.3093 30.8278C27.6173 31.1703 27.6173 31.7249 27.3093 32.0674L25.74 33.8127C25.5933 33.9921 25.388 34.0736 25.1826 34.0736Z" fill="white"/>
<path d="M25.1826 34.0736C24.7573 34.0736 24.4053 33.6822 24.4053 33.2092V26.2281C24.4053 25.7551 24.7573 25.3636 25.1826 25.3636C25.6079 25.3636 25.9599 25.7551 25.9599 26.2281V33.2092C25.9746 33.6822 25.6226 34.0736 25.1826 34.0736Z" fill="white"/>
<path d="M10.0907 21.2206C10.6627 21.5468 12.8333 22.5254 16.236 21.1716C16.896 19.4264 16.896 18.203 16.8813 16.6861V16.0989C16.8813 14.4026 12.628 11.4014 11.5133 11.4014C10.5453 11.4014 9.81199 11.8744 9.31333 12.8204C8.28666 14.794 8.60933 18.2193 10.0907 21.2206ZM12.892 23.602C10.5453 23.602 9.16666 22.6559 9.09333 22.5907C8.99066 22.5091 8.90266 22.4113 8.84399 22.2971C6.98133 18.6924 6.62933 14.5331 7.96399 11.9396C8.72666 10.4553 9.98799 9.63977 11.5133 9.63977C13.2147 9.63977 18.4507 13.0651 18.4507 16.0826V16.6535C18.4653 18.3498 18.48 19.9483 17.5413 22.2155C17.4533 22.4276 17.3067 22.5907 17.116 22.6722C15.4733 23.3736 14.0653 23.602 12.892 23.602Z" fill="white"/>
<path d="M13.42 49.7648C11.2347 49.7648 9.82668 42.327 9.03468 36.0799C8.97601 35.6069 9.26934 35.1665 9.70934 35.1012C10.1347 35.036 10.5307 35.3622 10.5893 35.8516C11.3373 41.7072 12.5987 47.0898 13.4053 47.9706C13.8453 47.3019 14.1093 44.4311 14.2707 42.6859C14.52 39.8804 14.7693 37.2217 15.6053 35.9984C15.8693 35.6069 16.3533 35.5416 16.7053 35.8352C17.0573 36.1288 17.116 36.6834 16.852 37.0586C16.28 37.8904 16.0307 40.647 15.8253 42.8653C15.488 46.7147 15.2093 49.7648 13.42 49.7648Z" fill="white"/>
<mask id="mask0_105_6" style="mask-type:luminance" maskUnits="userSpaceOnUse" x="5" y="33" width="45" height="6">
<path d="M49.5 33.7637H5.57336V38.657H49.5V33.7637Z" fill="white"/>
</mask>
<g mask="url(#mask0_105_6)">
<path d="M13.0022 38.2751C11.1249 38.2751 9.74621 37.1333 9.11554 36.2199C9.05687 36.1384 8.33821 35.0292 6.47554 35.5185C6.05021 35.6327 5.62487 35.3391 5.52221 34.8661C5.41954 34.3931 5.68354 33.9364 6.09421 33.8222C9.07154 33.023 10.3329 35.1271 10.3915 35.2086C10.5529 35.437 12.4155 37.8836 15.7302 35.4859C16.6395 34.8335 17.0649 34.6541 18.3849 34.6541C18.9275 34.6541 19.7195 34.8009 20.7169 34.9803C22.0515 35.2249 23.7089 35.5185 25.1169 35.5185C27.0675 35.5185 28.7249 34.8824 30.0595 34.3605C30.9249 34.0342 31.5995 33.7733 32.1715 33.7733C33.3449 33.7733 34.2542 34.4746 34.5915 34.7519C35.2222 35.0129 39.0062 36.3667 44.4035 34.7193C44.8582 34.4094 46.3835 33.5286 48.7302 33.7896C49.1555 33.8385 49.4782 34.2626 49.4342 34.7356C49.3902 35.2086 49.0089 35.5838 48.5835 35.5185C46.4422 35.2902 45.2395 36.2036 45.1955 36.2362C45.1222 36.2852 45.0342 36.3341 44.9462 36.3667C38.4195 38.4056 34.0782 36.4156 33.9022 36.3341C33.8289 36.3015 33.7555 36.2525 33.6822 36.1873C33.6822 36.1873 32.9929 35.5348 32.1862 35.5348C31.8782 35.5348 31.2622 35.7795 30.5875 36.0405C29.2089 36.5624 27.3462 37.2801 25.1315 37.2801C23.6062 37.2801 21.8755 36.9702 20.4822 36.7092C19.6169 36.5461 18.8102 36.3993 18.3995 36.3993C17.3582 36.3993 17.2262 36.4972 16.5955 36.9539C15.2755 37.9163 14.0582 38.2751 13.0022 38.2751Z" fill="white"/>
</g>
<mask id="mask1_105_6" style="mask-type:luminance" maskUnits="userSpaceOnUse" x="33" y="28" width="14" height="25">
<path d="M46.4933 28.7073H33V52.4235H46.4933V28.7073Z" fill="white"/>
</mask>
<g mask="url(#mask1_105_6)">
<path d="M34.9214 36.3572C35.0094 36.6834 35.0827 37.0585 34.98 37.4989C34.188 41.0058 34.672 47.5628 36.3294 49.9279C36.8134 50.6293 37.2094 50.6456 37.356 50.6456C37.5467 50.1726 37.2827 48.3784 37.092 47.1714C36.696 44.6105 36.256 41.7072 37.4587 40.125C37.9867 39.44 38.7347 39.0811 39.7027 39.0811C40.6707 39.0811 41.4334 39.4236 41.9614 40.125C43.1494 41.6909 42.7094 44.5942 42.328 47.1714C42.1374 48.3784 41.8734 50.1563 42.064 50.6456C42.2547 50.6456 42.636 50.5803 43.1054 49.9116C44.7627 47.5465 45.2174 41.2015 44.4254 37.6784C44.352 37.3195 44.3667 36.9281 44.4694 36.4387C44.3227 35.7537 43.8387 33.5843 43.164 30.9746C43.12 30.7951 42.7534 30.5831 42.3134 30.5831H36.9014C36.4614 30.5831 36.0947 30.7951 36.0507 30.9746C35.3614 33.5843 35.0094 35.721 34.9214 36.3572ZM42.0347 52.3909C41.4334 52.3909 41.0667 52.081 40.876 51.82C40.1574 50.8739 40.4214 49.1124 40.7587 46.8778C41.0814 44.79 41.4627 42.2128 40.744 41.2505C40.612 41.071 40.348 40.8264 39.688 40.8264C39.028 40.8264 38.764 41.071 38.632 41.2505C37.9134 42.1965 38.3094 44.79 38.6174 46.8778C38.9547 49.1124 39.2187 50.8739 38.5 51.82C38.3094 52.081 37.9427 52.3909 37.3414 52.3909C36.7547 52.3909 35.8747 52.1462 35.068 51.0044C33.0734 48.15 32.5454 41.0547 33.44 37.0912C33.4547 37.0585 33.4254 36.9444 33.352 36.6997C33.308 36.5692 33.308 36.4387 33.3227 36.3082C33.3374 36.2104 33.6747 33.7311 34.5107 30.5015C34.804 29.3598 35.904 28.8541 36.872 28.8541H42.284C43.252 28.8541 44.352 29.3598 44.6454 30.5015C45.4814 33.6985 46.0094 36.2593 46.024 36.2756C46.0534 36.4387 46.0534 36.5855 46.0094 36.7486C45.892 37.1401 45.9214 37.2706 45.9214 37.2706C46.8307 41.2668 46.3174 48.15 44.308 51.0044C43.516 52.1462 42.6214 52.3909 42.0347 52.3909Z" fill="white"/>
</g>
<path d="M16.148 37.5642C16.0014 37.5642 15.8694 37.5316 15.7374 37.4337C15.444 37.2216 15.312 36.8302 15.3854 36.4713C15.3707 36.1451 15.18 34.8239 14.4907 31.7412C14.4614 31.5617 14.3147 31.4476 14.1387 31.4476H12.0854C11.9094 31.4476 11.7627 31.578 11.7334 31.7412L10.6627 36.3735C10.5454 36.8302 10.12 37.1238 9.70937 36.9933C9.28404 36.8628 9.03471 36.3898 9.15204 35.9331L10.2227 31.3008C10.4427 30.3547 11.22 29.686 12.1 29.686H14.168C15.0627 29.686 15.8254 30.3547 16.0454 31.3008C17.1894 36.4713 17.0427 36.7649 16.8374 37.1238C16.6614 37.4174 16.412 37.5642 16.148 37.5642Z" fill="white"/>
<mask id="mask2_105_6" style="mask-type:luminance" maskUnits="userSpaceOnUse" x="16" y="8" width="18" height="16">
<path d="M33.1466 8.74268H16.72V23.6509H33.1466V8.74268Z" fill="white"/>
</mask>
<g mask="url(#mask2_105_6)">
<path d="M19.7852 21.139C23.4079 22.1014 26.7959 22.1014 30.1106 21.1553C30.1693 20.9596 30.2279 20.7476 30.3013 20.5355C30.7999 18.8718 31.5626 16.3436 31.5626 14.9572C31.5626 13.1793 30.9173 10.5369 29.1133 10.5369C28.0573 10.5369 27.4999 10.961 26.8986 11.4177C26.4146 11.7765 25.8866 12.1843 25.1679 12.2496C25.0946 12.2659 25.0213 12.2822 24.9479 12.2822C24.1119 12.2822 23.5253 11.8255 22.9973 11.434C22.3959 10.9773 21.8239 10.5369 20.7826 10.5369C18.9932 10.5369 18.3332 13.1793 18.3332 14.9572C18.3332 15.104 18.3479 15.2671 18.3626 15.4302C18.3772 15.5933 18.4066 15.7564 18.4359 15.9195C18.6999 17.3386 19.3746 19.671 19.7706 21.0575L19.7852 21.139ZM25.0799 23.602C23.0999 23.602 21.0759 23.3084 18.9786 22.7049C18.7146 22.6233 18.5092 22.4113 18.4212 22.1177L18.2599 21.5794C17.8199 20.0625 17.1599 17.7627 16.8959 16.2621C16.8519 16.05 16.8226 15.838 16.8079 15.6259C16.7786 15.3976 16.7639 15.1692 16.7639 14.9572C16.7639 11.8907 18.1426 8.79163 20.7826 8.79163C22.3226 8.79163 23.2173 9.47669 23.8773 9.98233C24.2879 10.2922 24.5372 10.4717 24.8159 10.5206C24.8599 10.5043 24.9039 10.5043 24.9479 10.5043C25.2853 10.5043 25.5492 10.3249 26.0186 9.96602C26.6786 9.47669 27.5879 8.79163 29.1133 8.79163C31.7533 8.79163 33.1319 11.8907 33.1319 14.9572C33.1319 16.6209 32.3546 19.2143 31.7826 21.0901C31.6653 21.4816 31.5479 21.8404 31.4746 22.134C31.4013 22.4113 31.1959 22.6396 30.9319 22.7212C28.9959 23.2921 27.0599 23.602 25.0799 23.602Z" fill="white"/>
</g>
<mask id="mask3_105_6" style="mask-type:luminance" maskUnits="userSpaceOnUse" x="31" y="8" width="17" height="16">
<path d="M47.2267 8.74268H31.5333V23.6509H47.2267V8.74268Z" fill="white"/>
</mask>
<g mask="url(#mask3_105_6)">
<path d="M34.4224 21.1227C35.7717 21.4489 40.1717 22.346 44.2784 21.139C45.0997 18.2846 45.569 16.05 45.569 14.9408C45.569 13.2282 44.953 10.5205 43.2957 10.5205C42.3277 10.5205 41.7997 10.9446 41.2424 11.4013C40.7437 11.8091 40.157 12.2658 39.3504 12.2658C39.277 12.2658 39.2037 12.2495 39.1304 12.2332C38.441 12.168 37.913 11.7602 37.4584 11.385C36.901 10.9446 36.373 10.5205 35.3904 10.5205C33.733 10.5205 33.117 13.2282 33.117 14.9408C33.1317 16.0337 33.601 18.2683 34.4224 21.1227ZM39.6584 23.5204C36.3584 23.5204 33.7624 22.7538 33.601 22.7048C33.381 22.6396 33.205 22.4765 33.1024 22.2481C33.073 22.1666 33.0437 22.085 33.029 21.9872C32.3544 19.671 31.5624 16.6372 31.5624 14.9408C31.5624 11.9722 32.765 8.77527 35.405 8.77527C36.8864 8.77527 37.7517 9.46033 38.3824 9.96597C38.8224 10.3085 39.057 10.4879 39.3504 10.4879C39.3944 10.4879 39.4384 10.4879 39.4824 10.5042C39.717 10.4553 39.9517 10.2759 40.3184 9.98228C40.949 9.47664 41.8144 8.77527 43.2957 8.77527C45.9357 8.77527 47.1384 11.9722 47.1384 14.9408C47.1384 16.784 46.1997 20.2419 45.6424 22.134C45.569 22.4112 45.3637 22.607 45.1144 22.7048C43.2664 23.3083 41.3597 23.5204 39.6584 23.5204Z" fill="white"/>
</g>
</g>
</svg>
