<svg width="25" height="25" viewBox="0 0 25 25" fill="none" xmlns="http://www.w3.org/2000/svg">
<path d="M16.6036 0.962321C16.6036 0.431315 17.1285 0 17.7775 0C18.4265 0 18.9514 0.431315 18.9514 0.962321V5.17782C18.9514 5.70882 18.4265 6.14014 17.7775 6.14014C17.1285 6.14014 16.6036 5.70882 16.6036 5.17782V0.962321ZM6.02417 0.962321C6.02417 0.431315 6.54907 0 7.19808 0C7.84709 0 8.37199 0.431315 8.37199 0.962321V5.17782C8.37199 5.70882 7.84709 6.14014 7.19808 6.14014C6.54907 6.14014 6.02417 5.70882 6.02417 5.17782V0.962321ZM8.33944 17.2038C8.08105 16.9556 8.07292 16.5446 8.32113 16.2862C8.56934 16.0278 8.98031 16.0197 9.23869 16.2679L11.2528 18.2149L15.7328 13.4176C15.977 13.1551 16.3879 13.1409 16.6504 13.385C16.9128 13.6292 16.9271 14.0401 16.6829 14.3026L11.7533 19.5841L11.7452 19.5923C11.497 19.8507 11.086 19.8588 10.8276 19.6106L8.33944 17.2038ZM1.30208 9.22038H23.6979V4.36808C23.6979 4.20532 23.6308 4.0568 23.5229 3.94694C23.4151 3.83911 23.2666 3.77197 23.1018 3.77197H20.9554C20.5953 3.77197 20.3044 3.48104 20.3044 3.12093C20.3044 2.76082 20.5953 2.46989 20.9554 2.46989H23.1018C23.6247 2.46989 24.0987 2.68351 24.4425 3.02734C24.7864 3.37118 25 3.84521 25 4.36808V9.87345V23.1038C25 23.6267 24.7864 24.1007 24.4425 24.4446C24.0987 24.7884 23.6247 25.002 23.1018 25.002H1.89819C1.37533 25.002 0.901286 24.7884 0.557454 24.4446C0.213623 24.0987 0 23.6247 0 23.1018V9.87345V4.36808C0 3.84521 0.213623 3.37118 0.557454 3.02734C0.901286 2.68351 1.37533 2.46989 1.89819 2.46989H4.19108C4.55119 2.46989 4.84212 2.76082 4.84212 3.12093C4.84212 3.48104 4.55119 3.77197 4.19108 3.77197H1.89819C1.73543 3.77197 1.58691 3.83911 1.47705 3.94694C1.36922 4.05477 1.30208 4.20329 1.30208 4.36808V9.22038ZM23.6979 10.5245H1.30208V23.1018C1.30208 23.2646 1.36922 23.4131 1.47705 23.5229C1.58488 23.6308 1.7334 23.6979 1.89819 23.6979H23.1018C23.2646 23.6979 23.4131 23.6308 23.5229 23.5229C23.6308 23.4151 23.6979 23.2666 23.6979 23.1018V10.5245ZM10.26 3.77197C9.8999 3.77197 9.60897 3.48104 9.60897 3.12093C9.60897 2.76082 9.8999 2.46989 10.26 2.46989H14.6322C14.9923 2.46989 15.2832 2.76082 15.2832 3.12093C15.2832 3.48104 14.9923 3.77197 14.6322 3.77197H10.26Z" fill="#1B4965"/>
</svg>
