<svg width="51" height="53" viewBox="0 0 51 53" fill="none" xmlns="http://www.w3.org/2000/svg">
<g clip-path="url(#clip0_108_80)">
<path d="M35.5746 3.83255C33.7304 0.688797 29.4422 0.364578 26.3616 1.86809C25.8589 2.11145 25.3088 2.24269 24.7497 2.25261C24.1906 2.26253 23.6361 2.15089 23.125 1.92552C23.0857 1.90716 22.8997 1.81966 22.8541 1.79856C19.7857 0.376297 15.6036 0.739578 13.789 3.83255C12.2821 6.40091 12.4523 9.92239 14.3 14.2986C14.4359 14.6224 14.6652 14.8991 14.959 15.0937C15.2528 15.2884 15.598 15.3923 15.9512 15.3923H33.4092C33.7624 15.3923 34.1076 15.2884 34.4014 15.0938C34.6953 14.8992 34.9245 14.6225 35.0604 14.2986C36.9081 9.922 37.0814 6.40091 35.5746 3.83255ZM33.9757 13.845C33.9292 13.9559 33.8507 14.0506 33.7501 14.1172C33.6495 14.1838 33.5313 14.2193 33.4104 14.2193H15.9543C15.8335 14.2193 15.7153 14.1838 15.6148 14.1172C15.5143 14.0506 15.4358 13.9559 15.3894 13.845C13.6938 9.82629 13.4984 6.65755 14.8091 4.42239C15.7212 2.86575 17.4655 2.18489 19.2645 2.18489C20.3505 2.18622 21.423 2.42423 22.4063 2.88216C22.4315 2.89427 22.5636 2.95755 22.5978 2.97552C23.0199 3.19631 23.3992 3.48995 23.7178 3.8427C23.9307 4.10673 24.1942 4.32611 24.4931 4.48812C24.792 4.65013 25.1203 4.75153 25.459 4.78645C25.4786 4.78645 25.4983 4.78919 25.5172 4.78919C25.6686 4.78921 25.8143 4.73132 25.924 4.62751C26.0337 4.5237 26.0989 4.38194 26.1063 4.2316C26.1136 4.08127 26.0624 3.9339 25.9634 3.82004C25.8643 3.70618 25.7249 3.63457 25.5742 3.62005C25.359 3.60724 25.152 3.53305 24.9782 3.40637C25.6395 3.37182 26.2871 3.20648 26.8833 2.92005C29.4237 1.68059 33.0794 1.90442 34.5576 4.42278C35.8659 6.65637 35.6709 9.82669 33.9757 13.845Z" fill="white" fill-opacity="0.3"/>
<path d="M46.5924 23.765C41.3528 22.2681 34.2379 23.8267 31.0752 24.6771C31.0414 24.6704 30.6007 24.5849 30.4521 24.5489L29.9351 21.2544C29.932 21.2345 29.9276 21.2154 29.9225 21.1947C29.7987 20.7319 29.5246 20.3228 29.1427 20.0309C28.7608 19.7389 28.2925 19.5805 27.8106 19.5802H21.5528C21.071 19.5805 20.6027 19.7389 20.2208 20.0309C19.8389 20.3228 19.5647 20.7319 19.4409 21.1947C19.4358 21.2142 19.4315 21.2337 19.4284 21.2544L18.9114 24.5489C18.7628 24.5849 18.3276 24.6693 18.2969 24.6751C15.1311 23.8255 8.02212 22.27 2.78447 23.765C1.96609 23.9986 1.24579 24.4891 0.731212 25.1632C0.216631 25.8373 -0.064594 26.6588 -0.0704346 27.5048V45.8177C-0.0690819 47.0087 0.407669 48.1505 1.25522 48.9927C2.10278 49.8348 3.25192 50.3085 4.45055 50.3099H44.9279C46.1265 50.3085 47.2756 49.8348 48.1232 48.9927C48.9707 48.1505 49.4475 47.0087 49.4488 45.8177V27.5048C49.4428 26.6586 49.1614 25.837 48.6465 25.1629C48.1316 24.4888 47.411 23.9984 46.5924 23.765ZM16.7799 26.7779C16.8213 26.6438 16.8897 26.5195 16.9808 26.4124C17.072 26.3053 17.184 26.2177 17.3102 26.1548C17.7302 25.9894 18.168 25.8728 18.615 25.8072C19.3828 25.6595 19.8899 25.5618 20.0188 25.0782C20.0244 25.0586 20.0286 25.0387 20.0314 25.0185C20.0314 25.0185 20.3911 22.3454 20.5889 21.4689C20.6454 21.2592 20.7712 21.0745 20.9461 20.9445C21.121 20.8145 21.3348 20.7467 21.5532 20.7521H27.8106C28.029 20.7467 28.2429 20.8145 28.4178 20.9445C28.5927 21.0745 28.7185 21.2592 28.775 21.4689C28.9716 22.3454 29.3325 25.0185 29.3325 25.0185C29.3353 25.0387 29.3395 25.0586 29.345 25.0782C29.474 25.5618 29.9811 25.6595 30.7489 25.8072C31.196 25.8727 31.634 25.9895 32.0541 26.1552C32.1801 26.218 32.292 26.3056 32.383 26.4126C32.474 26.5197 32.5423 26.6439 32.5836 26.7779C32.6255 26.9092 32.6402 27.0476 32.6267 27.1847C32.6132 27.3218 32.5718 27.4548 32.505 27.5755C32.2054 28.1193 31.8862 28.6853 31.5701 29.2443C30.7556 30.6775 30.4214 33.1614 30.0955 35.5638C29.781 37.8841 29.4272 40.5142 28.6928 41.0517C28.6611 41.0778 28.6244 41.0973 28.5848 41.1088C28.5452 41.1202 28.5037 41.1236 28.4628 41.1185C27.9164 40.8212 27.4513 37.6911 27.1738 35.8212C26.5802 31.8212 26.1422 29.3693 24.6817 29.3693C23.2213 29.3693 22.7833 31.8212 22.1897 35.8212C21.9121 37.6911 21.4471 40.8212 20.9246 41.1115C20.8805 41.1213 20.8347 41.121 20.7907 41.1107C20.7467 41.1003 20.7056 41.0801 20.6706 41.0517C19.9363 40.5142 19.5813 37.8841 19.268 35.5638C18.9421 33.1614 18.6079 30.6775 17.7953 29.2423C17.4808 28.6833 17.16 28.1173 16.8604 27.5736C16.7937 27.4532 16.7522 27.3206 16.7383 27.1839C16.7245 27.0471 16.7386 26.909 16.7799 26.7779ZM48.2695 45.8177C48.2684 46.698 47.916 47.5419 47.2896 48.1644C46.6631 48.7868 45.8138 49.137 44.9279 49.138H4.45212C3.56619 49.137 2.71685 48.7868 2.0904 48.1644C1.46396 47.5419 1.11156 46.698 1.11052 45.8177V27.5048C1.11558 26.9129 1.31324 26.3385 1.67397 25.8674C2.03471 25.3963 2.53915 25.0538 3.11194 24.8911C4.66303 24.4805 6.26378 24.2846 7.8688 24.3091C10.7268 24.3595 13.5703 24.7243 16.3474 25.397C15.954 25.7224 15.6867 26.1736 15.5914 26.6734C15.4961 27.1731 15.5787 27.6902 15.8249 28.1361C16.1269 28.6829 16.4484 29.254 16.7684 29.8157C17.4698 31.0556 17.7906 33.4259 18.0996 35.7189C18.4927 38.6396 18.8347 41.1618 19.9717 41.9943C20.1341 42.1159 20.3201 42.203 20.5179 42.25C20.7158 42.2971 20.9213 42.3031 21.1216 42.2677C22.3969 42.054 22.7833 39.8572 23.3569 35.9927C23.6399 34.0818 24.1117 30.9036 24.6817 30.5505C25.2518 30.9021 25.7235 34.0818 26.0074 35.9919C26.5809 39.8564 26.9674 42.0532 28.2427 42.2669C28.3297 42.2816 28.4178 42.2891 28.5061 42.2892C28.8259 42.2892 29.137 42.1859 29.3926 41.995C30.5295 41.1626 30.87 38.6404 31.2647 35.7197C31.5741 33.4267 31.8937 31.0564 32.5962 29.8165C32.9142 29.254 33.2358 28.6837 33.5378 28.1368C33.7838 27.6915 33.8665 27.1751 33.7717 26.6759C33.6769 26.1767 33.4105 25.7257 33.018 25.4001C36.4807 24.5954 42.06 23.69 46.2665 24.8923C46.8394 25.0547 47.344 25.3968 47.705 25.8677C48.066 26.3386 48.2641 26.9129 48.2695 27.5048V45.8177Z" fill="white" fill-opacity="0.3"/>
</g>
<defs>
<clipPath id="clip0_108_80">
<rect width="50.3205" height="52.7344" fill="white"/>
</clipPath>
</defs>
</svg>
