<svg width="50" height="50" viewBox="0 0 50 50" fill="none" xmlns="http://www.w3.org/2000/svg">
<g clip-path="url(#clip0_127_15)">
<path d="M49.2277 36.6387H28.2894C28.4816 36.1915 28.6948 35.7385 28.944 35.273C29.2296 34.7359 29.5427 34.2197 29.855 33.7043C30.4747 32.7421 31.0099 31.7279 31.4544 30.6731C32.9677 26.816 33.3695 21.5343 29.9732 18.2787C26.6889 15.1261 20.8818 15.0087 17.1661 17.8873C13.4493 15.0087 7.64102 15.1269 4.36018 18.2775C0.960378 21.5343 1.36263 26.816 2.87788 30.6738C3.32354 31.7291 3.85949 32.744 4.48032 33.7066C4.7915 34.2213 5.10463 34.7367 5.38946 35.273C5.63942 35.7385 5.85179 36.1888 6.04323 36.6387H0.931314C0.471315 36.6387 0.0985107 37.0115 0.0985107 37.4711C0.0985107 37.9311 0.471315 38.3039 0.931314 38.3039H6.62685C6.79542 38.8759 6.91672 39.4607 6.98996 40.0524C7.16358 42.0149 7.49375 43.9603 7.97739 45.8697C8.36647 47.3128 9.09077 50 11.4946 50C12.1941 50 14.3259 50 15.7214 39.9901C15.9923 38.0749 16.76 37.8645 17.1654 37.8102C17.5692 37.8637 18.3403 38.0718 18.612 39.9885C20.0059 50 22.1381 50 22.8396 50C25.2426 50 25.9669 47.3128 26.3541 45.8759C26.8362 43.9634 27.1667 42.0161 27.3434 40.0517C27.4163 39.4603 27.5376 38.8759 27.7058 38.3039H49.2277C49.6873 38.3039 50.0601 37.9311 50.0601 37.4711C50.0601 37.0115 49.6873 36.6387 49.2277 36.6387ZM24.7462 45.4318C24.3684 46.8342 23.8785 48.3305 22.8384 48.3305C22.3788 48.2762 21.1441 46.1095 20.2571 39.7537C19.9443 37.5413 18.9348 36.3263 17.2595 36.1399C17.2274 36.1407 17.1956 36.1438 17.1638 36.1489C17.1309 36.1438 17.0979 36.1407 17.0646 36.1399C15.3885 36.3263 14.3802 37.542 14.067 39.7552C13.1819 46.1064 11.9469 48.2755 11.49 48.332C10.4491 48.332 9.95845 46.8335 9.57944 45.4275C9.11867 43.6003 8.80438 41.7394 8.64046 39.8618C8.39244 37.9741 7.78634 36.1512 6.85433 34.491C6.55438 33.9283 6.22653 33.3862 5.89907 32.8448C5.33095 31.962 4.83878 31.0319 4.42839 30.0654C3.11272 26.7106 2.70659 22.1679 5.51115 19.48C8.31571 16.7921 13.6008 16.8363 16.6034 19.5784C16.6116 19.5858 16.6224 19.5874 16.6317 19.5951C16.641 19.6025 16.6441 19.6141 16.6542 19.6207C16.6883 19.6482 20.099 22.3253 20.9476 25.2158C21.0519 25.5708 21.3782 25.8146 21.7487 25.8134C21.8277 25.8138 21.9068 25.8022 21.9827 25.7793C22.1947 25.7173 22.3734 25.5735 22.4796 25.3798C22.5854 25.186 22.6102 24.9581 22.5481 24.7462C21.8204 22.2671 19.6653 20.0598 18.4787 18.9886C21.5495 16.8514 26.2359 17.0002 28.8207 19.4808C31.626 22.1679 31.2195 26.7106 29.9031 30.0646C29.4919 31.0307 28.9986 31.9597 28.4285 32.8417C28.1011 33.3827 27.7724 33.924 27.4725 34.4894C26.5397 36.1489 25.9336 37.9718 25.6864 39.8595C25.5186 41.7386 25.2043 43.6018 24.7462 45.4318Z" fill="white" fill-opacity="0.3"/>
<path d="M7.88746 19.809C5.73396 21.0569 4.63763 23.5564 5.17785 25.9859C5.25962 26.3719 5.60103 26.6478 5.99554 26.6462C6.05367 26.6462 6.1118 26.6404 6.16877 26.6288C6.38501 26.5831 6.57451 26.4536 6.69503 26.2684C6.81555 26.0831 6.85741 25.8576 6.81168 25.6414C6.42454 23.9312 7.18177 22.1664 8.68771 21.2689C9.07602 21.0406 9.21282 20.5453 8.99619 20.1504C8.77995 19.7555 8.28856 19.6044 7.88746 19.809Z" fill="white" fill-opacity="0.3"/>
<path d="M48.3949 4.99604H40.9357L22.5032 3.39322C22.1331 1.42766 20.4179 0.00310024 18.4178 0H16.7522C14.4542 0.00271272 12.5917 1.86518 12.589 4.16363V9.99247C12.589 10.9121 13.3346 11.6577 14.2542 11.6577H16.7522V14.1557C16.2926 14.1557 15.9198 14.5285 15.9198 14.9885C15.9198 15.4485 16.2926 15.8213 16.7522 15.8213H18.4178C18.8778 15.8213 19.2506 15.4485 19.2506 14.9885C19.2506 14.5285 18.8778 14.1557 18.4178 14.1557V11.6577H20.9159C21.8359 11.6577 22.5815 10.9121 22.5815 9.99247V9.40459L40.6908 14.1294C40.7594 14.1468 40.8299 14.1557 40.9004 14.1557H48.3949C49.3145 14.1557 50.0601 13.4101 50.0601 12.4905V6.66165C50.0601 5.74165 49.3145 4.99604 48.3949 4.99604ZM14.2542 9.99247V4.16363C14.2542 2.78363 15.3726 1.66522 16.7522 1.66522H18.4178C19.7974 1.66522 20.9159 2.78363 20.9159 4.16363V9.99247H14.2542ZM22.5815 5.072L40.068 6.59228V12.2456L22.5815 7.68395V5.072ZM48.3949 12.4905H41.7332V6.66165H48.3949V12.4905Z" fill="white" fill-opacity="0.3"/>
</g>
<defs>
<clipPath id="clip0_127_15">
<rect width="50" height="50" fill="white"/>
</clipPath>
</defs>
</svg>
