<svg width="15" height="20" viewBox="0 0 15 20" fill="none" xmlns="http://www.w3.org/2000/svg">
<path d="M9.21937 20C9.06684 19.999 8.91734 19.943 8.78661 19.8378L6.00125 17.6005C5.68791 17.3474 5.42854 16.9904 5.24813 16.5641C5.06771 16.1378 4.97232 15.6564 4.97115 15.1664V10.1046C4.97191 9.7473 4.88893 9.39869 4.73389 9.1079L0.844913 1.78982C0.754104 1.62088 0.699914 1.42163 0.688323 1.21406C0.676733 1.00649 0.708192 0.798673 0.779229 0.61353C0.850267 0.428387 0.958122 0.273118 1.09089 0.164856C1.22366 0.0565938 1.37619 -0.000453014 1.53165 9.80218e-06H13.5035C13.6591 -0.000858221 13.8118 0.0559398 13.9448 0.164115C14.0777 0.272291 14.1857 0.427624 14.2568 0.612916C14.3279 0.798207 14.3593 1.00623 14.3476 1.21395C14.3358 1.42167 14.2814 1.62098 14.1902 1.78982L10.3013 9.1079C10.146 9.39859 10.0627 9.74719 10.0632 10.1046V18.8679C10.0629 19.1677 9.97402 19.4551 9.81588 19.6673C9.65773 19.8795 9.44324 19.9991 9.21937 20ZM1.53165 1.12423L5.41394 8.45909C5.67046 8.93888 5.80782 9.51453 5.80659 10.1046V15.1653C5.80714 15.4621 5.86487 15.7538 5.97419 16.0121C6.08351 16.2703 6.24073 16.4865 6.43067 16.6396L9.21602 18.8769L9.22772 10.1035C9.22679 9.5133 9.36444 8.93767 9.62121 8.45797L13.5094 1.13989L1.53165 1.12423Z" fill="#F2F2F2"/>
</svg>
