<svg width="70" height="79" viewBox="0 0 70 79" fill="none" xmlns="http://www.w3.org/2000/svg">
<path d="M9.68801 34.2411C9.68801 33.5219 9.68801 33.0329 9.68801 32.8531C9.70288 32.5782 9.63704 32.3051 9.49901 32.0692L9.40801 31.9037C9.31001 31.7383 9.22601 31.5801 9.12801 31.4363C8.21264 30.1608 7.76403 28.5947 7.86101 27.0132C7.86389 26.084 8.12101 25.1743 8.60301 24.3881C9.1212 23.6541 9.8227 23.0776 10.6334 22.7193C11.4442 22.361 12.334 22.2344 13.209 22.3528L13.44 22.3887C14.0837 22.4788 14.711 22.6654 15.302 22.9425C15.7655 23.1758 16.2728 23.303 16.7888 23.3154C17.3048 23.3279 17.8173 23.2252 18.291 23.0144C19.4925 22.473 20.8277 22.3273 22.113 22.5973C22.9805 22.7468 23.7819 23.1675 24.4083 23.802C25.0346 24.4365 25.4553 25.2539 25.613 26.1429C25.7917 27.0976 25.7744 28.0801 25.5623 29.0275C25.3501 29.9749 24.9478 30.8664 24.381 31.6448C24.1492 32.0017 23.9545 32.3826 23.8 32.7812L23.758 32.8603C23.758 32.8603 23.758 32.9825 23.758 33.0473V33.7017H23.058V33.0832C23.0412 32.9103 23.0627 32.7357 23.121 32.5726V32.5007C23.3114 32.0574 23.546 31.6356 23.821 31.2421C24.335 30.5427 24.7003 29.7403 24.8933 28.8867C25.0862 28.033 25.1025 27.1473 24.941 26.2868C24.801 25.5365 24.4387 24.849 23.9036 24.3185C23.3685 23.7881 22.6868 23.4406 21.952 23.3237C20.8071 23.0829 19.6175 23.2162 18.55 23.7049C17.9873 23.9538 17.3788 24.0749 16.7663 24.06C16.1538 24.0451 15.5517 23.8946 15.001 23.6186C14.4614 23.3622 13.8884 23.1878 13.3 23.1007H13.09C12.3447 22.9962 11.5858 23.0993 10.8926 23.3991C10.1993 23.699 9.59716 24.1846 9.14901 24.8052C8.73634 25.4821 8.51797 26.2648 8.51901 27.0635C8.43215 28.4837 8.83077 29.8904 9.64601 31.0407C9.76302 31.2117 9.87052 31.3894 9.96801 31.5729L10.059 31.7311C10.2671 32.0887 10.367 32.5018 10.346 32.9178C10.346 33.076 10.346 33.637 10.346 34.2483L9.68801 34.2411Z" fill="white" fill-opacity="0.8"/>
<path d="M46.151 35.1546C46.102 34.011 46.074 32.7165 46.088 32.3928C46.0993 32.1297 46.0334 31.8691 45.899 31.6449L45.808 31.4794C45.7261 31.3167 45.6325 31.1604 45.528 31.012C44.6178 29.7342 44.172 28.1692 44.268 26.5889C44.2684 25.6603 44.5231 24.7506 45.003 23.9638C45.5218 23.2286 46.2244 22.6513 47.0365 22.293C47.8486 21.9347 48.7399 21.8088 49.616 21.9285H49.84C50.4837 22.0185 51.111 22.2051 51.702 22.4822C52.1669 22.7152 52.6753 22.8422 53.1923 22.8547C53.7094 22.8671 54.223 22.7646 54.698 22.5542C55.8993 22.0123 57.2347 21.8665 58.52 22.137C59.3874 22.2866 60.1889 22.7072 60.8152 23.3417C61.4416 23.9762 61.8622 24.7936 62.02 25.6827C62.1968 26.64 62.1766 27.6246 61.9608 28.5734C61.745 29.5222 61.3384 30.4141 60.767 31.1918C60.5456 31.55 60.3558 31.9279 60.2 32.3209V32.4V32.6949C60.2 32.9682 60.2 33.2343 60.2 33.4932H59.5C59.5 33.2343 59.5 32.9754 59.5 32.7093V32.6086C59.4857 32.4351 59.5096 32.2606 59.57 32.098V32.026C59.7629 31.5841 59.9974 31.1626 60.27 30.7674C60.784 30.0681 61.1493 29.2656 61.3423 28.412C61.5352 27.5584 61.5515 26.6726 61.39 25.8121C61.251 25.0614 60.8889 24.3733 60.3537 23.8427C59.8184 23.3121 59.1362 22.9649 58.401 22.849C57.2561 22.6083 56.0665 22.7415 54.999 23.2302C54.4362 23.4791 53.8278 23.6003 53.2153 23.5854C52.6028 23.5705 52.0006 23.4199 51.45 23.1439C50.9181 22.8977 50.3548 22.7306 49.777 22.6477H49.567C48.8217 22.5432 48.0628 22.6462 47.3696 22.9461C46.6763 23.2459 46.0742 23.7315 45.626 24.3522C45.2042 25.0263 44.9761 25.8091 44.968 26.6105C44.8745 28.0313 45.2738 29.4403 46.095 30.5876C46.207 30.753 46.305 30.9257 46.41 31.1126L46.508 31.2781C46.7141 31.6362 46.8115 32.0494 46.788 32.4647C46.788 32.7308 46.788 33.9679 46.851 35.1617L46.151 35.1546Z" fill="white" fill-opacity="0.8"/>
<path d="M35 36.9669C32.5607 36.8608 30.1878 36.1183 28.105 34.8093L28.455 34.1836C31.913 36.2405 36.855 37.8155 40.852 33.637C41.1206 33.3604 41.4493 33.1533 41.811 33.0328L42.035 33.752C41.7718 33.8333 41.5316 33.9789 41.335 34.1764C40.5239 35.0658 39.5423 35.7729 38.4519 36.2532C37.3616 36.7334 36.1863 36.9764 35 36.9669Z" fill="white" fill-opacity="0.8"/>
<path d="M56.364 50.0635H14.875C11.431 50.0635 9.68799 46.4675 9.68799 39.4049V33.4859L10.22 33.8311C12.32 35.1617 17.794 37.7795 23.373 33.414C24.633 32.4215 25.781 32.2849 26.796 33.0041C26.8342 33.0301 26.8669 33.0637 26.8922 33.1029C26.9175 33.1422 26.9349 33.1862 26.9434 33.2325C26.9519 33.2787 26.9513 33.3262 26.9416 33.3722C26.9319 33.4183 26.9133 33.4618 26.887 33.5003C26.861 33.5398 26.8276 33.5735 26.7889 33.5996C26.7501 33.6257 26.7066 33.6436 26.661 33.6523C26.6154 33.661 26.5686 33.6603 26.5233 33.6503C26.478 33.6402 26.435 33.621 26.397 33.5938C25.641 33.0616 24.815 33.1839 23.793 33.9822C18.298 38.2974 12.908 36.2117 10.388 34.7589V39.4049C10.388 46 11.893 49.3443 14.875 49.3443H56.364C57.694 49.3443 58.569 48.4093 59.038 46.4675C59.3784 44.7332 59.5193 42.9638 59.458 41.1957V34.2123C53.298 38.7649 46.592 36.1038 43.834 33.9894C43.6252 33.8325 43.3867 33.7223 43.134 33.6657C43.0888 33.6555 43.0461 33.6362 43.0083 33.609C42.9704 33.5817 42.9382 33.547 42.9135 33.5069C42.8887 33.4668 42.872 33.422 42.8642 33.3752C42.8564 33.3284 42.8577 33.2805 42.868 33.2342C42.8771 33.1881 42.8951 33.1444 42.9209 33.1055C42.9468 33.0667 42.9799 33.0335 43.0184 33.0081C43.0569 32.9826 43.1 32.9653 43.1451 32.9572C43.1902 32.9491 43.2364 32.9504 43.281 32.9609C43.6353 33.0386 43.9694 33.1931 44.261 33.414C46.956 35.4781 53.62 38.0888 59.591 33.2054L60.165 32.7451V41.2317C60.228 43.058 60.0799 44.8856 59.724 46.6761C59.164 48.9056 58.037 50.0635 56.364 50.0635Z" fill="white" fill-opacity="0.8"/>
<path d="M35.483 46.4962C33.523 46.4962 31.598 45.0578 30.646 42.8139L27.937 34.5216C27.937 33.9678 27.937 33.3205 27.986 33.0041V32.8602C28.0009 32.5854 27.935 32.3122 27.797 32.0763L27.706 31.9109C27.615 31.7455 27.524 31.5872 27.426 31.4434C26.5106 30.1679 26.062 28.6019 26.159 27.0203C26.1485 26.3318 26.2865 25.6495 26.5629 25.0223C26.8394 24.395 27.2475 23.8384 27.758 23.3922C28.2685 22.9461 28.8687 22.6216 29.5156 22.4418C30.1626 22.2621 30.8402 22.2317 31.5 22.3527L31.731 22.3887C32.3771 22.478 33.0068 22.6646 33.6 22.9424C34.0649 23.1754 34.5732 23.3024 35.0903 23.3149C35.6074 23.3273 36.121 23.2248 36.596 23.0144C37.7945 22.4712 39.128 22.3254 40.411 22.5972C41.2784 22.7468 42.0799 23.1674 42.7062 23.8019C43.3325 24.4364 43.7532 25.2538 43.911 26.1429C44.0926 27.0961 44.0787 28.0777 43.8702 29.025C43.6617 29.9724 43.2631 30.8646 42.7 31.6448C42.4615 31.9998 42.2575 32.378 42.091 32.7739V32.853C42.0874 32.9153 42.0874 32.9777 42.091 33.04V33.4643V33.8239L39.62 42.778C38.92 45.0507 37.485 46.374 35.686 46.4962H35.483ZM28.637 34.4353L31.304 42.555C32.144 44.5328 33.943 45.8705 35.651 45.777C37.163 45.6979 38.332 44.5616 38.948 42.5766L41.363 33.6873V33.0832C41.3462 32.9103 41.3677 32.7357 41.426 32.5725V32.5006C41.6164 32.0574 41.851 31.6356 42.126 31.242C42.64 30.5427 43.0053 29.7402 43.1983 28.8866C43.3912 28.033 43.4074 27.1472 43.246 26.2867C43.106 25.5364 42.7437 24.8489 42.2086 24.3185C41.6735 23.788 40.9918 23.4405 40.257 23.3236C39.112 23.0828 37.9225 23.2161 36.855 23.7048C36.2922 23.9537 35.6838 24.0749 35.0713 24.06C34.4588 24.0451 33.8566 23.8945 33.306 23.6185C32.7741 23.3722 32.2108 23.2052 31.633 23.1222H31.423C30.8597 23.0091 30.2789 23.0272 29.7234 23.1754C29.1678 23.3235 28.6517 23.5978 28.2131 23.9781C27.7744 24.3583 27.4244 24.8349 27.1889 25.3726C26.9533 25.9103 26.8382 26.4955 26.852 27.085C26.7827 28.4908 27.1882 29.878 28 31.0119C28.117 31.1829 28.2245 31.3606 28.322 31.5441L28.413 31.7023C28.6211 32.0599 28.721 32.4729 28.7 32.889V33.0832C28.7 33.3421 28.63 33.9318 28.637 34.4353Z" fill="white" fill-opacity="0.8"/>
<path d="M35.406 38.8728C33.1945 38.8395 31.0209 38.2781 29.057 37.233L29.407 36.6073C29.463 36.6433 35.441 40.0667 40.607 36.6073L40.992 37.2114C39.3311 38.321 37.387 38.8991 35.406 38.8728Z" fill="white" fill-opacity="0.8"/>
<path d="M35.077 40.7858C33.2473 40.7757 31.4364 40.4046 29.743 39.6926L30.023 39.0381C30.576 39.2827 35.546 41.3611 40.019 38.808L40.362 39.4337C38.7421 40.342 36.9223 40.8076 35.077 40.7858Z" fill="white" fill-opacity="0.8"/>
<path d="M35 42.8068C33.5145 42.801 32.0355 42.6053 30.597 42.2242L30.786 41.505C30.835 41.505 36.057 42.9434 39.326 41.1023L39.662 41.728C38.2198 42.481 36.6173 42.8519 35 42.8068Z" fill="white" fill-opacity="0.8"/>
<path d="M35.378 44.7415C34.1659 44.7319 32.9579 44.5946 31.773 44.3315L31.92 43.6123C33.467 43.9503 36.4 44.3747 38.703 43.4469L38.962 44.1158C37.8147 44.5478 36.5999 44.7599 35.378 44.7415Z" fill="white" fill-opacity="0.8"/>
</svg>
