<svg width="22" height="25" viewBox="0 0 22 25" fill="none" xmlns="http://www.w3.org/2000/svg">
<path fill-rule="evenodd" clip-rule="evenodd" d="M2.54445 4.36216C6.19924 0.409145 10.4144 -1.74131 13.5794 1.77632C14.4095 1.81498 15.1505 2.08556 15.7731 2.65929C17.0764 3.8576 17.2736 6.10164 16.6821 7.88589V9.4382C17.0847 9.69658 17.3421 10.1828 17.4625 10.7382C17.5393 11.0963 17.5579 11.489 17.5227 11.8653C17.4853 12.2539 17.3878 12.6283 17.23 12.9314C17.0038 13.3688 16.6593 13.676 16.1923 13.7432C15.7357 14.2192 15.2895 14.7279 14.889 15.2202C14.4511 15.7594 14.0754 16.27 13.8181 16.6871C13.6188 17.0106 13.6811 17.2222 13.7537 17.4622C13.789 17.5823 13.8264 17.7064 13.8533 17.8447C14.6524 18.0156 15.3767 18.1478 16.0263 18.2679C20.1501 19.0247 21.4286 19.2587 21.4286 24.5158C21.4286 24.7843 21.2065 25 20.9346 25H10.7132H0.493947C0.219993 25 0 24.7823 0 24.5158C0 19.2587 1.27845 19.0227 5.40228 18.2658C6.05604 18.1458 6.7845 18.0115 7.58976 17.8406C7.61674 17.7369 7.65202 17.6392 7.68731 17.5416C7.77032 17.3096 7.85334 17.0777 7.61052 16.6871C7.35316 16.27 6.97752 15.7594 6.53961 15.2202C6.14113 14.7279 5.69284 14.2192 5.23625 13.7432C4.76928 13.676 4.42477 13.3668 4.19855 12.9314C4.04082 12.6262 3.94327 12.2519 3.90591 11.8653C3.86856 11.489 3.88931 11.0963 3.9661 10.7382C4.0844 10.1849 4.33967 9.70269 4.73815 9.44227L4.2027 9.131C4.05949 7.57461 4.47665 4.87281 2.54445 4.36216ZM15.6942 7.46678C15.605 6.82592 15.4348 6.28882 15.192 5.83919C14.8807 5.45874 14.4282 5.13526 13.8471 4.71819L13.7807 4.6714C13.6582 4.58188 13.5337 4.49847 13.4092 4.42116C11.4542 5.66423 10.5078 5.3733 8.93047 5.62761C7.50052 5.8575 6.34037 6.37833 5.73227 7.33047C5.73227 7.35489 5.73227 7.38134 5.73227 7.40575V9.74541C5.73227 9.97531 5.56832 10.1686 5.34832 10.2174C5.14908 10.2764 5.00588 10.5694 4.92909 10.9356C4.87305 11.2021 4.85853 11.4951 4.88551 11.7758C4.91249 12.0444 4.97475 12.2967 5.07852 12.494C5.16984 12.671 5.28814 12.791 5.42511 12.7931H5.45417C5.59737 12.791 5.72812 12.848 5.81944 12.9436C6.34244 13.4828 6.85922 14.0646 7.31166 14.6221C7.76617 15.1816 8.16465 15.7268 8.45106 16.1907C8.93462 16.9719 8.77482 17.4175 8.61709 17.863C8.57143 17.9912 8.52577 18.1214 8.52577 18.2435C8.52577 18.4876 8.34106 18.689 8.10239 18.7236C7.14978 18.9332 6.31961 19.0857 5.58492 19.22C2.20823 19.8365 1.07506 20.046 0.99412 24.0316H10.7132H20.4324C20.3514 20.046 19.2183 19.8365 15.8437 19.216C15.1007 19.0796 14.258 18.925 13.2888 18.7114C13.0605 18.6605 12.9028 18.4612 12.9049 18.2394H12.9028C12.9028 18.0502 12.853 17.8854 12.8073 17.7308C12.6724 17.2771 12.5521 16.8743 12.9754 16.1886C13.2618 15.7248 13.6603 15.1795 14.1148 14.62C14.5673 14.0626 15.0841 13.4807 15.6071 12.9416C15.7129 12.8338 15.8561 12.7829 15.9972 12.7931H15.9993C16.1363 12.791 16.2546 12.671 16.3459 12.494C16.4476 12.2967 16.5119 12.0444 16.5389 11.7758C16.5659 11.4951 16.5514 11.2021 16.4953 10.9356C16.4165 10.5633 16.2691 10.2662 16.0657 10.2154C15.8416 10.1604 15.6921 9.9631 15.6921 9.74541V7.46678H15.6942Z" fill="#1B4965"/>
</svg>
