<svg width="60" height="57" viewBox="0 0 60 57" fill="none" xmlns="http://www.w3.org/2000/svg">
<path d="M50.5853 39.3172C50.3111 39.3174 50.0399 39.3746 49.7889 39.4851C49.5379 39.5956 49.3127 39.7571 49.1273 39.9592C48.9552 39.9273 48.7804 39.9112 48.6053 39.9112C47.9693 39.9112 47.3475 40.0998 46.8186 40.4532C46.2898 40.8066 45.8776 41.3088 45.6341 41.8965C45.3907 42.4841 45.327 43.1308 45.4511 43.7546C45.5752 44.3785 45.8815 44.9515 46.3313 45.4013C46.7811 45.851 47.3541 46.1573 47.9779 46.2814C48.6018 46.4055 49.2484 46.3418 49.8361 46.0984C50.4237 45.855 50.926 45.4428 51.2793 44.9139C51.6327 44.385 51.8213 43.7633 51.8213 43.1272C51.8259 43.0393 51.8259 42.9511 51.8213 42.8632C52.1448 42.6104 52.3817 42.2633 52.4993 41.8699C52.6168 41.4765 52.6091 41.0563 52.4773 40.6674C52.3455 40.2786 52.0961 39.9404 51.7636 39.6995C51.431 39.4587 51.0319 39.3272 50.6213 39.3232L50.5853 39.3172ZM51.1313 42.2812L50.8673 42.4312L50.9153 42.7312C50.9405 42.8638 50.9545 42.9983 50.9573 43.1332C50.9678 43.6357 50.8202 44.1289 50.5354 44.543C50.2506 44.9572 49.8429 45.2715 49.37 45.4416C48.897 45.6116 48.3825 45.6289 47.8992 45.491C47.4158 45.353 46.988 45.0668 46.6761 44.6727C46.3641 44.2786 46.1837 43.7965 46.1604 43.2944C46.1371 42.7923 46.2721 42.2955 46.5462 41.8742C46.8203 41.4529 47.2198 41.1283 47.6883 40.9462C48.1568 40.7641 48.6706 40.7336 49.1573 40.8592L49.4513 40.9372L49.6193 40.6852C49.7136 40.5443 49.8386 40.4265 49.9848 40.3408C50.1311 40.2551 50.295 40.2036 50.464 40.1903C50.633 40.177 50.8029 40.2022 50.9608 40.2639C51.1187 40.3257 51.2605 40.4225 51.3757 40.5469C51.4908 40.6714 51.5762 40.8203 51.6256 40.9826C51.6749 41.1448 51.6868 41.3161 51.6604 41.4836C51.634 41.651 51.5699 41.8104 51.4731 41.9496C51.3763 42.0888 51.2492 42.2042 51.1013 42.2872L51.1313 42.2812Z" fill="white" fill-opacity="0.5"/>
<path d="M16.6373 7.66122C16.8726 8.13414 17.2207 8.54183 17.6509 8.84828C18.0811 9.15473 18.5801 9.35051 19.1039 9.4183C19.6278 9.4861 20.1602 9.42384 20.6543 9.23702C21.1483 9.05019 21.5887 8.74456 21.9366 8.34712C22.2845 7.94968 22.5292 7.47267 22.649 6.95824C22.7687 6.44381 22.76 5.9078 22.6234 5.39756C22.4869 4.88732 22.2268 4.41857 21.8661 4.03272C21.5054 3.64687 21.0552 3.35579 20.5553 3.18522L20.2973 3.11322C20.1984 2.83697 20.0394 2.58608 19.832 2.37859C19.6245 2.1711 19.3736 2.01217 19.0973 1.91322C18.7177 1.77922 18.3063 1.76377 17.9176 1.86892C17.529 1.97407 17.1815 2.19485 16.9212 2.502C16.6609 2.80914 16.5001 3.18815 16.4601 3.58877C16.4201 3.98938 16.5029 4.39269 16.6973 4.74522C16.611 4.8984 16.5387 5.05905 16.4813 5.22522C16.2092 6.02591 16.2653 6.90179 16.6373 7.66122ZM17.2853 5.47722C17.3531 5.29074 17.4438 5.11338 17.5553 4.94922L17.7173 4.69722L17.5313 4.45722C17.424 4.32279 17.3491 4.16549 17.3123 3.99748C17.2755 3.82948 17.2778 3.65526 17.319 3.48828C17.3603 3.32131 17.4394 3.16605 17.5502 3.03451C17.661 2.90297 17.8005 2.79866 17.9581 2.72965C18.1156 2.66064 18.2869 2.62877 18.4587 2.6365C18.6306 2.64423 18.7983 2.69136 18.949 2.77425C19.0997 2.85714 19.2293 2.97356 19.3279 3.11452C19.4264 3.25549 19.4912 3.41722 19.5173 3.58722L19.5713 3.88722L19.8713 3.93522C20.3469 4.01239 20.7874 4.23378 21.1331 4.56944C21.4788 4.90511 21.713 5.33884 21.8042 5.81199C21.8953 6.28513 21.8389 6.77486 21.6427 7.21491C21.4464 7.65497 21.1197 8.02413 20.7068 8.27245C20.2938 8.52078 19.8146 8.63629 19.3339 8.60336C18.8532 8.57043 18.3942 8.39066 18.019 8.08834C17.6438 7.78603 17.3705 7.37578 17.236 6.91307C17.1016 6.45036 17.1125 5.95752 17.2673 5.50122L17.2853 5.47722Z" fill="white" fill-opacity="0.5"/>
<path d="M56.587 25.7522C56.588 25.0737 56.374 24.4124 55.9757 23.8632C55.5775 23.3139 55.0154 22.905 54.3703 22.6951C53.7252 22.4851 53.0301 22.485 52.3849 22.6947C51.7396 22.9044 51.1774 23.3131 50.779 23.8622C49.5752 23.4092 48.272 23.287 47.005 23.5082C47.1847 22.5328 47.2251 21.5369 47.125 20.5502C46.729 17.7782 45.703 15.7982 44.065 14.6582C42.427 13.5182 40.183 13.2362 37.423 13.8362L36.259 14.0882C34.5332 14.5417 32.7623 14.8013 30.979 14.8622C29.1894 14.8006 27.4124 14.539 25.681 14.0822L24.541 13.8362C21.805 13.2362 19.591 13.5242 17.941 14.6462C17.687 14.605 17.4303 14.5829 17.173 14.5802C16.6051 14.5802 16.0413 14.6755 15.505 14.8622C15.246 14.2532 14.7873 13.7507 14.2043 13.4375C13.6214 13.1243 12.9491 13.0191 12.2984 13.1393C11.6476 13.2595 11.0573 13.598 10.6247 14.0988C10.1922 14.5996 9.94325 15.2329 9.91898 15.8942C9.1989 16.019 8.51838 16.3118 7.93262 16.7488C7.34686 17.1858 6.87235 17.7548 6.54759 18.4095C6.22282 19.0642 6.05694 19.7862 6.0634 20.517C6.06987 21.2478 6.24849 21.9667 6.58478 22.6156C6.92108 23.2644 7.40557 23.8249 7.99897 24.2515C8.59237 24.6781 9.27796 24.9588 10.0001 25.0708C10.7223 25.1829 11.4607 25.1232 12.1555 24.8965C12.8503 24.6698 13.4819 24.2826 13.999 23.7662C14.3429 24.037 14.7199 24.2628 15.121 24.4382C15.6304 26.7526 16.3144 29.0251 17.167 31.2362C16.7219 31.4832 16.3172 31.7968 15.967 32.1662C14.9716 31.4504 13.8126 30.9958 12.596 30.8441C11.3794 30.6924 10.1442 30.8485 9.00357 31.298C7.86294 31.7476 6.85337 32.4761 6.06735 33.417C5.28134 34.3579 4.74403 35.481 4.50465 36.6834C4.26527 37.8858 4.33148 39.1291 4.69722 40.2993C5.06295 41.4695 5.71651 42.5292 6.59801 43.3812C7.47951 44.2333 8.56076 44.8506 9.74268 45.1764C10.9246 45.5022 12.1694 45.5262 13.363 45.2462C13.7085 46.3266 14.3711 47.278 15.2646 47.9767C16.1581 48.6755 17.2412 49.0892 18.373 49.1642C18.5582 50.483 18.8553 51.7837 19.261 53.0522C19.309 53.1962 20.407 56.4242 22.369 56.4242H22.549C24.265 56.2562 25.285 53.8862 25.957 48.5042C26.743 42.1982 27.757 38.9822 30.979 38.9642C34.201 38.9462 35.215 42.1922 36.001 48.5042C36.673 53.9042 37.693 56.2562 39.409 56.4242H39.589C41.551 56.4242 42.649 53.1962 42.697 53.0522C43.933 49.3502 44.317 43.9262 43.855 36.9182C43.963 36.8102 44.071 36.6962 44.173 36.5762C45.3623 37.3959 46.7725 37.8353 48.217 37.8362C50.1241 37.8283 51.9509 37.0672 53.2994 35.7186C54.648 34.3701 55.4091 32.5433 55.417 30.6362C55.4191 29.8951 55.3057 29.1583 55.081 28.4522C55.5406 28.167 55.9199 27.7695 56.1834 27.2971C56.4469 26.8247 56.5858 26.2931 56.587 25.7522ZM13.927 22.5422L13.639 22.8902C13.2392 23.371 12.7266 23.7455 12.1471 23.9803C11.5675 24.2151 10.9388 24.303 10.317 24.236C9.6953 24.169 9.09977 23.9493 8.58349 23.5964C8.06721 23.2435 7.64622 22.7685 7.358 22.2135C7.06978 21.6585 6.92328 21.0409 6.93156 20.4156C6.93984 19.7903 7.10263 19.1768 7.40543 18.6296C7.70824 18.0825 8.14166 17.6187 8.6671 17.2796C9.19254 16.9406 9.79368 16.7367 10.417 16.6862L10.855 16.6502L10.795 16.1162C10.7921 16.0762 10.7921 16.0361 10.795 15.9962C10.7994 15.4965 10.9861 15.0156 11.3199 14.6437C11.6537 14.2718 12.1117 14.0346 12.608 13.9764C13.1043 13.9182 13.6048 14.0432 14.0156 14.3278C14.4263 14.6124 14.7191 15.0371 14.839 15.5222L14.959 16.0262L15.433 15.8102C15.9853 15.5602 16.5847 15.4313 17.191 15.4322C17.8933 15.4255 18.5864 15.5914 19.2096 15.9152C19.8328 16.2391 20.367 16.711 20.7652 17.2895C21.1635 17.868 21.4136 18.5354 21.4936 19.2331C21.5736 19.9309 21.4811 20.6376 21.2242 21.2912C20.9673 21.9449 20.5539 22.5255 20.0202 22.982C19.4865 23.4385 18.8489 23.757 18.1633 23.9096C17.4778 24.0621 16.7653 24.044 16.0883 23.8569C15.4114 23.6697 14.7908 23.3192 14.281 22.8362L13.927 22.5422ZM14.077 44.6402L13.969 44.2022L13.537 44.3282C12.6468 44.5938 11.7099 44.6645 10.79 44.5356C9.87007 44.4066 8.98871 44.0811 8.20587 43.581C7.42304 43.0809 6.7571 42.4181 6.25336 41.6376C5.74962 40.8572 5.41991 39.9774 5.28665 39.058C5.15339 38.1387 5.21972 37.2015 5.48111 36.3101C5.7425 35.4187 6.19283 34.5941 6.80145 33.8923C7.41008 33.1906 8.16272 32.6282 9.00818 32.2433C9.85363 31.8585 10.7721 31.6603 11.701 31.6622C13.1781 31.657 14.6114 32.1638 15.757 33.0962L16.093 33.3662L16.363 33.0302C16.7287 32.5634 17.1919 32.1822 17.7202 31.913C18.2485 31.6438 18.8292 31.4931 19.4218 31.4716C20.0143 31.45 20.6045 31.5581 21.1509 31.7882C21.6974 32.0183 22.1871 32.365 22.5857 32.8039C22.9843 33.2429 23.2824 33.7636 23.459 34.3296C23.6355 34.8956 23.6864 35.4934 23.6081 36.0812C23.5298 36.6689 23.3241 37.2325 23.0054 37.7325C22.6867 38.2325 22.2627 38.657 21.763 38.9762L21.265 39.3062L21.733 39.6722C22.3427 40.1461 22.8301 40.7591 23.1543 41.4599C23.4785 42.1608 23.6302 42.9291 23.5967 43.7006C23.5631 44.4721 23.3453 45.2243 22.9615 45.8944C22.5776 46.5644 22.0389 47.1328 21.3903 47.552C20.7418 47.9712 20.0023 48.229 19.2337 48.3038C18.4651 48.3785 17.6897 48.2682 16.9725 47.9819C16.2553 47.6957 15.6171 47.2418 15.1113 46.6583C14.6054 46.0749 14.2466 45.3787 14.065 44.6282L14.077 44.6402ZM40.951 52.4882C40.609 53.5082 39.883 54.5462 39.607 54.6062C39.607 54.6062 38.557 54.1502 37.807 48.2822C37.207 43.3322 36.415 37.1762 30.991 37.1342H30.937C25.537 37.1762 24.739 43.3322 24.121 48.2822C23.389 54.1202 22.363 54.5942 22.375 54.6002C22.063 54.5462 21.337 53.5082 20.995 52.4882C20.6346 51.3543 20.3697 50.1922 20.203 49.0142C21.1855 48.7565 22.0814 48.241 22.7978 47.5209C23.5143 46.8008 24.0253 45.9024 24.2779 44.9186C24.5306 43.9347 24.5158 42.9012 24.2351 41.9251C23.9543 40.9489 23.4178 40.0654 22.681 39.3662C23.4593 38.717 24.019 37.844 24.2841 36.8658C24.5492 35.8876 24.5069 34.8515 24.1629 33.8982C23.8189 32.9448 23.1899 32.1204 22.3612 31.5369C21.5326 30.9533 20.5445 30.6388 19.531 30.6362C19.3303 30.6378 19.1299 30.6518 18.931 30.6782C18.2148 28.776 17.6137 26.8325 17.131 24.8582H17.215C18.2973 24.8586 19.3522 24.5176 20.2293 23.8836C21.1065 23.2495 21.7613 22.3549 22.1003 21.3271C22.4394 20.2992 22.4455 19.1906 22.1177 18.1591C21.79 17.1276 21.1451 16.2258 20.275 15.5822C21.5626 15.277 22.9052 15.2894 24.187 15.6182L25.339 15.8702C27.1862 16.3551 29.0821 16.6308 30.991 16.6922H31.045C32.9415 16.6303 34.8252 16.3566 36.661 15.8762L37.813 15.6362C40.051 15.1562 41.803 15.3422 43.015 16.1822C44.227 17.0222 44.977 18.5462 45.301 20.8262C45.3895 21.9455 45.2984 23.0717 45.031 24.1622C44.857 24.2462 44.689 24.3302 44.521 24.4262C44.2857 23.8922 43.9418 23.4131 43.5111 23.0194C43.0804 22.6257 42.5724 22.326 42.0195 22.1396C41.4665 21.9531 40.8808 21.8839 40.2997 21.9364C39.7185 21.9889 39.1547 22.1619 38.6441 22.4444C38.1335 22.7269 37.6874 23.1127 37.3342 23.5772C36.981 24.0416 36.7285 24.5746 36.5927 25.1421C36.4569 25.7096 36.4409 26.2992 36.5456 26.8732C36.6503 27.4473 36.8735 27.9932 37.201 28.4762C36.1859 29.0882 35.3991 30.0156 34.9604 31.1168C34.5218 32.2179 34.4555 33.4323 34.7717 34.5747C35.0879 35.717 35.7692 36.7245 36.7116 37.4434C37.654 38.1623 38.8057 38.5531 39.991 38.5562C40.7084 38.5543 41.4182 38.4095 42.079 38.1302C42.415 44.3222 42.037 49.2362 40.951 52.4882ZM54.391 27.8882L54.043 28.0562L54.181 28.4222C54.6577 29.7149 54.7013 31.1275 54.3052 32.4471C53.9092 33.7667 53.0949 34.9218 51.9852 35.7384C50.8754 36.5549 49.5304 36.9887 48.1527 36.9742C46.775 36.9597 45.4393 36.4979 44.347 35.6582L43.993 35.3882L43.735 35.7542C43.3317 36.3254 42.8027 36.7965 42.1887 37.1313C41.5748 37.466 40.8922 37.6555 40.1936 37.6851C39.4949 37.7147 38.7988 37.5836 38.1587 37.302C37.5187 37.0203 36.9517 36.5956 36.5016 36.0605C36.0514 35.5254 35.7299 34.8942 35.562 34.2154C35.394 33.5366 35.384 32.8283 35.5326 32.145C35.6813 31.4617 35.9848 30.8217 36.4196 30.274C36.8545 29.7264 37.4092 29.2858 38.041 28.9862L38.569 28.7342L38.173 28.3082C37.8238 27.9346 37.5646 27.4861 37.4153 26.997C37.266 26.508 37.2306 25.9912 37.3116 25.4863C37.3926 24.9814 37.5881 24.5017 37.8829 24.0839C38.1778 23.6661 38.5642 23.3213 39.0128 23.0757C39.4614 22.8302 39.9601 22.6905 40.471 22.6673C40.9818 22.6441 41.4912 22.738 41.9602 22.9418C42.4292 23.1457 42.8453 23.454 43.1768 23.8434C43.5084 24.2327 43.7465 24.6927 43.873 25.1882L44.029 25.7882L44.533 25.4282C45.4297 24.7953 46.4742 24.4038 47.566 24.2913C48.6577 24.1789 49.7601 24.3493 50.767 24.7862L51.121 24.9422L51.313 24.6002C51.4931 24.2777 51.7467 24.0021 52.0532 23.7958C52.3596 23.5896 52.7104 23.4584 53.077 23.4129C53.4436 23.3675 53.8158 23.409 54.1633 23.5342C54.5109 23.6594 54.8241 23.8647 55.0776 24.1334C55.331 24.4022 55.5176 24.7269 55.6222 25.0812C55.7268 25.4355 55.7464 25.8095 55.6796 26.1728C55.6127 26.5361 55.4612 26.8785 55.2373 27.1724C55.0134 27.4663 54.7235 27.7033 54.391 27.8642V27.8882Z" fill="white" fill-opacity="0.5"/>
</svg>
