<svg width="18" height="20" viewBox="0 0 18 20" fill="none" xmlns="http://www.w3.org/2000/svg">
<path d="M8.95916 2.58108e-07C10.1304 -0.000359941 11.2709 0.376291 12.2133 1.07467C13.1557 1.77305 13.8503 2.75638 14.1952 3.88032C14.5401 5.00427 14.5172 6.20964 14.1297 7.31952C13.7422 8.42939 13.0107 9.38532 12.0424 10.047C13.7231 10.666 15.1808 11.7759 16.2279 13.2339C17.2751 14.6919 17.8637 16.4312 17.918 18.228C17.9231 18.3277 17.9083 18.4275 17.8744 18.5214C17.8406 18.6153 17.7884 18.7015 17.721 18.7749C17.6536 18.8483 17.5722 18.9074 17.4817 18.9488C17.3912 18.9902 17.2934 19.013 17.194 19.016C17.0946 19.0189 16.9956 19.0019 16.9028 18.9659C16.8101 18.9299 16.7254 18.8756 16.6538 18.8063C16.5822 18.737 16.5251 18.6541 16.4858 18.5623C16.4466 18.4706 16.4259 18.3719 16.4252 18.272C16.3659 16.3235 15.5533 14.4747 14.1598 13.1174C12.7662 11.7602 10.9011 11.0011 8.95966 11.0011C7.01826 11.0011 5.15315 11.7602 3.75957 13.1174C2.36598 14.4747 1.55344 16.3235 1.49414 18.272C1.4882 18.4709 1.40381 18.6593 1.25953 18.7957C1.11526 18.9322 0.922921 19.0055 0.72483 18.9995C0.52674 18.9935 0.339124 18.9088 0.203255 18.7639C0.0673856 18.619 -0.00560629 18.4259 0.000336416 18.227C0.0548583 16.4304 0.643562 14.6913 1.69068 13.2335C2.7378 11.7757 4.19543 10.6659 5.87596 10.047C4.90766 9.38532 4.17609 8.42939 3.78862 7.31952C3.40115 6.20964 3.37818 5.00427 3.7231 3.88032C4.06801 2.75638 4.76264 1.77305 5.70503 1.07467C6.64741 0.376291 7.78792 -0.000359941 8.95916 2.58108e-07ZM4.97569 5.5C4.97569 6.56087 5.39538 7.57828 6.14242 8.32843C6.88947 9.07857 7.90268 9.5 8.95916 9.5C10.0156 9.5 11.0289 9.07857 11.7759 8.32843C12.5229 7.57828 12.9426 6.56087 12.9426 5.5C12.9426 4.43913 12.5229 3.42172 11.7759 2.67157C11.0289 1.92143 10.0156 1.5 8.95916 1.5C7.90268 1.5 6.88947 1.92143 6.14242 2.67157C5.39538 3.42172 4.97569 4.43913 4.97569 5.5Z" fill="#1B4965"/>
</svg>
