<svg width="73" height="67" viewBox="0 0 73 67" fill="none" xmlns="http://www.w3.org/2000/svg">
<path d="M19.2139 18.7704C20.5052 21.4623 22.7222 23.6269 25.479 24.8876L26.699 25.4427C22.754 27.6228 17.9259 31.4894 18.669 37.1421C19.2505 41.563 22.4653 42.7034 24.2124 42.7034C24.2624 42.7034 24.3124 42.7024 24.3599 42.7006C24.4964 42.6952 24.6303 42.6626 24.7534 42.6048C24.8765 42.547 24.9862 42.4652 25.0757 42.3644C25.1651 42.2636 25.2325 42.146 25.2737 42.0188C25.3149 41.8916 25.3289 41.7576 25.315 41.6249C25.3091 41.5696 24.7788 36.0674 28.0776 32.8452C30.5906 30.3923 32.2537 29.683 32.8903 29.4851C33.7876 30.1513 34.8833 30.5128 36.0105 30.5146C37.1378 30.5165 38.2347 30.1586 39.1343 29.4954C39.811 29.7109 41.459 30.4425 43.9143 32.8462C47.2219 36.0674 46.6916 41.5696 46.6857 41.6247C46.6718 41.7574 46.6859 41.8914 46.727 42.0186C46.7682 42.1458 46.8356 42.2634 46.9251 42.3642C47.0146 42.465 47.1242 42.5468 47.2473 42.6046C47.3704 42.6624 47.5043 42.695 47.6408 42.7004C47.6887 42.7022 47.738 42.7032 47.7883 42.7032C49.5354 42.7032 52.7507 41.5618 53.3317 37.1419C54.0748 31.4881 49.2442 27.6206 45.299 25.441L46.5246 24.8855C49.2791 23.6255 51.4942 21.4625 52.7846 18.7728L56.9667 10.0885C57.2625 9.46914 57.4128 8.79306 57.4066 8.1097C57.4005 7.42634 57.238 6.75295 56.9311 6.13877C56.6281 5.52139 56.1858 4.9791 55.6373 4.55265C55.0889 4.12619 54.4486 3.82667 53.7645 3.6766C52.6482 3.42836 51.4776 3.58475 50.4706 4.11667C49.4636 4.64858 48.689 5.51975 48.2909 6.56793L45.39 14.3133C44.5377 16.5981 42.9157 18.5325 40.79 19.7993L38.7031 21.042C37.881 20.5755 36.9474 20.3293 35.9965 20.3284C35.0457 20.3276 34.1116 20.572 33.2886 21.037L31.21 19.7983C29.0839 18.5314 27.4617 16.5967 26.6094 14.3114L23.7075 6.56451C23.3092 5.5172 22.5347 4.64691 21.5282 4.11571C20.5217 3.58451 19.3518 3.42859 18.2363 3.67699C17.5527 3.82662 16.9126 4.12555 16.3642 4.55133C15.8158 4.97711 15.3734 5.51867 15.07 6.13535C14.7623 6.75068 14.5995 7.42541 14.5934 8.11014C14.5874 8.79487 14.7382 9.47226 15.0349 10.0927L19.2139 18.7704ZM26.6631 31.4645C23.7041 34.3538 23.2842 38.5267 23.2754 40.5874C22.312 40.2804 20.9814 39.4002 20.6519 36.8942C19.9753 31.7447 25.3786 28.2231 28.9657 26.4752L31.2378 27.5095C31.3057 27.6584 31.4046 27.7918 31.4878 27.9337C29.6792 28.8241 28.0459 30.0194 26.6631 31.4645ZM41.83 21.4671C44.3433 19.9701 46.2613 17.6837 47.2694 14.9828L50.1675 7.24345C50.2928 6.90943 50.486 6.6036 50.7354 6.34435C50.9848 6.08509 51.2854 5.87777 51.6189 5.73484C51.9525 5.59192 52.3123 5.51634 52.6765 5.51266C53.0408 5.50897 53.4021 5.57726 53.7386 5.7134C54.0752 5.84955 54.38 6.05075 54.6349 6.3049C54.8898 6.55906 55.0894 6.86092 55.2217 7.19233C55.3541 7.52374 55.4164 7.87787 55.405 8.23341C55.3936 8.58895 55.3087 8.93856 55.1553 9.26123L50.9736 17.9446C49.8822 20.2197 48.0088 22.0495 45.6792 23.1159L43.0392 24.3121C42.0792 23.8794 41.282 23.5734 40.8143 23.4067C40.66 23.0564 40.466 22.7242 40.2357 22.4163L41.83 21.4671ZM16.8716 6.984C17.1053 6.52098 17.473 6.13507 17.9291 5.87408C18.3852 5.61309 18.9097 5.48848 19.4376 5.51569C19.9656 5.5429 20.4737 5.72074 20.8991 6.02717C21.3246 6.3336 21.6486 6.75516 21.8311 7.23964L24.73 14.9808C25.738 17.6821 27.6559 19.9689 30.1694 21.4661L32.8094 23.0383C32.9875 23.1451 33.1954 23.1944 33.4039 23.1793C33.6123 23.1643 33.8105 23.0855 33.9705 22.9543C34.5524 22.512 35.2691 22.2726 36.0065 22.2741C36.7439 22.2757 37.4595 22.5181 38.0394 22.9629C38.5327 23.3528 38.8966 23.8768 39.0852 24.4686C39.1331 24.6174 39.2168 24.7529 39.3293 24.8637C39.4418 24.9745 39.5797 25.0574 39.7317 25.1055C40.7133 25.4365 41.6737 25.8247 42.6077 26.268C46.1736 27.9378 52.0516 31.5384 51.3477 36.8938C51.0177 39.4018 49.6851 40.281 48.7242 40.588C48.7149 38.5276 48.2935 34.3534 45.3277 31.465C41.4777 27.6965 39.1734 27.4724 38.9234 27.459C38.9054 27.4581 38.8873 27.4581 38.8697 27.4581C38.614 27.4582 38.3681 27.5537 38.1822 27.7251C37.5807 28.2486 36.8028 28.5376 35.997 28.5367C35.1912 28.5359 34.4139 28.2454 33.8135 27.7206L33.7949 27.702C33.4189 27.3649 33.1344 26.942 32.9669 26.4711C32.9203 26.3386 32.845 26.2173 32.7461 26.1157C32.6473 26.014 32.5273 25.9342 32.3941 25.8818L29.313 24.4786C29.303 24.4747 29.2937 24.4689 29.283 24.465L26.3237 23.1174C23.9918 22.0503 22.1167 20.2187 21.0244 17.9414L16.8467 9.26504C16.6763 8.90709 16.5902 8.51646 16.5945 8.12177C16.5988 7.72707 16.6935 7.33832 16.8716 6.984ZM34.7411 25.3882C34.7411 25.1451 34.8149 24.9074 34.9533 24.7052C35.0916 24.503 35.2882 24.3454 35.5183 24.2524C35.7483 24.1593 36.0015 24.1349 36.2457 24.1824C36.4899 24.2298 36.7143 24.3469 36.8904 24.5188C37.0664 24.6908 37.1863 24.9098 37.2349 25.1483C37.2835 25.3868 37.2586 25.634 37.1633 25.8586C37.068 26.0833 36.9066 26.2753 36.6995 26.4104C36.4925 26.5454 36.249 26.6175 36 26.6175C35.6661 26.6175 35.3459 26.488 35.1098 26.2575C34.8737 26.0269 34.7411 25.7143 34.7411 25.3882ZM56 45.8941H45.1053C45.5528 44.6101 45.8233 43.2736 45.9097 41.9199C45.9632 41.1531 45.8558 40.3838 45.594 39.659C45.3322 38.9342 44.9215 38.2693 44.3872 37.705C43.2435 36.6096 41.7021 36.0009 40.1 36.0122C39.1136 36.0103 38.1452 36.2697 37.2978 36.7626C36.9206 37.0304 36.4663 37.1746 35.9999 37.1746C35.5336 37.1746 35.0792 37.0304 34.702 36.7626C33.8547 36.2697 32.8863 36.0104 31.9 36.0122C30.298 36.0009 28.7567 36.6095 27.6129 37.7048C27.0788 38.2687 26.6682 38.9331 26.4063 39.6573C26.1444 40.3816 26.0368 41.1504 26.09 41.9168C26.1762 43.2716 26.4469 44.6091 26.8951 45.8941H16C15.7348 45.8941 15.4804 45.997 15.2929 46.1801C15.1054 46.3632 15 46.6116 15 46.8706V51.7529C15.0033 54.6007 16.1633 57.3309 18.2255 59.3445C20.2877 61.3582 23.0836 62.4909 26 62.4941H46C48.9164 62.4909 51.7124 61.3582 53.7745 59.3445C55.8367 57.3309 56.9967 54.6007 57 51.7529V46.8706C57 46.6116 56.8947 46.3632 56.7071 46.1801C56.5196 45.997 56.2652 45.8941 56 45.8941ZM29.0479 39.0655C29.8125 38.3452 30.8378 37.9497 31.9 37.9652C32.5614 37.9663 33.2092 38.1483 33.77 38.4906C34.4358 38.9065 35.2096 39.1276 36 39.1276C36.7904 39.1276 37.5642 38.9065 38.23 38.4906C38.7908 38.1483 39.4387 37.9663 40.1 37.9652C41.1622 37.9497 42.1875 38.3453 42.952 39.0656C43.2999 39.4425 43.5645 39.8854 43.7294 40.3666C43.8943 40.8478 43.9559 41.357 43.9105 41.8625V41.8653C43.7575 43.472 43.3783 45.0504 42.7836 46.556L42.456 47.4848C41.4684 49.9618 40.7895 52.5458 40.434 55.1811C40.4193 55.3404 40.3778 55.5321 40.2597 55.5435C40.0688 55.5249 39.8886 55.4481 39.7448 55.3241C39.601 55.2 39.5008 55.0349 39.4584 54.8522C39.4058 54.5454 39.3721 54.2359 39.3573 53.9253C39.23 52.2469 38.9644 48.7552 36 48.7552C33.0356 48.7552 32.77 52.2472 32.6426 53.9255C32.6278 54.2358 32.5942 54.545 32.542 54.8515C32.4996 55.0344 32.3993 55.1996 32.2555 55.3239C32.1116 55.4481 31.9313 55.525 31.7402 55.5437C31.6221 55.5323 31.5802 55.3406 31.5659 55.1804C31.2103 52.5454 30.5314 49.9617 29.5439 47.485L29.2183 46.56C28.6222 45.0525 28.2423 43.4717 28.0894 41.8627C28.0439 41.3571 28.1056 40.8479 28.2705 40.3666C28.4354 39.8854 28.7 39.4425 29.0479 39.0655ZM55 51.7529C54.9974 54.0829 54.0483 56.3167 52.3611 57.9643C50.6738 59.6119 48.3862 60.5386 46 60.5412H26C23.6139 60.5386 21.3262 59.6119 19.639 57.9643C17.9517 56.3167 17.0027 54.0829 17 51.7529V47.8471H27.5571L27.6543 48.1226C28.5884 50.4495 29.2329 52.8776 29.5737 55.3546C29.5817 55.8818 29.7852 56.3883 30.1464 56.7802C30.5076 57.172 31.0021 57.4228 31.5381 57.4859C32.1942 57.517 32.8415 57.3282 33.3726 56.9508C33.9037 56.5734 34.2867 56.0301 34.4581 55.4109C34.562 54.9704 34.6217 54.521 34.6363 54.0692C34.7945 51.9942 35.0777 50.7078 35.9996 50.7078C36.9215 50.7078 37.2047 51.9942 37.3629 54.0692C37.3775 54.5214 37.4373 54.9711 37.5416 55.4119C37.7061 55.9915 38.0541 56.5054 38.5359 56.8801C39.0176 57.2549 39.6084 57.4713 40.2237 57.4983C40.3032 57.4984 40.3825 57.4943 40.4615 57.4859C40.9974 57.4229 41.4918 57.1725 41.853 56.7809C42.2143 56.3893 42.418 55.8831 42.4263 55.3561C42.767 52.8787 43.4115 50.4503 44.3457 48.1231L44.4431 47.8471H55V51.7529Z" fill="white" fill-opacity="0.5"/>
</svg>
