<svg width="45" height="66" viewBox="0 0 45 66" fill="none" xmlns="http://www.w3.org/2000/svg">
<path d="M21.9764 21.2728C20.7059 21.2567 19.4524 20.9781 18.2946 20.4546C17.3536 20.0474 16.3676 19.7535 15.3573 19.5792L15.5046 18.761C16.5767 18.9441 17.6232 19.2545 18.6218 19.6855C19.6434 20.1694 20.758 20.4252 21.8883 20.4351C23.0186 20.445 24.1375 20.2088 25.1673 19.7428C27.1545 18.8441 29.3314 18.4452 31.5082 18.581L31.4428 19.3992C29.3898 19.2503 27.332 19.6129 25.4537 20.4546C24.3638 20.9655 23.1797 21.2441 21.9764 21.2728Z" fill="#F2F2F2" fill-opacity="0.7"/>
<path d="M31.4427 59.1955L30.87 58.6064C32.5964 56.9701 34.29 52.8792 34.7482 50.7355C35.4136 47.1596 35.688 43.5218 35.5664 39.8864V39.6819C35.5244 39.3817 35.5553 39.0758 35.6564 38.7901L35.73 38.6264C35.8656 38.3725 36.0159 38.1266 36.18 37.8901C37.4318 35.9674 40.7536 30.8783 39.3136 25.781C39.0098 24.5429 38.4252 23.3913 37.6052 22.4152C36.7852 21.4391 35.7517 20.6647 34.5845 20.1519L34.9118 19.3992C36.1921 19.9591 37.3266 20.8059 38.2275 21.8742C39.1283 22.9425 39.7715 24.2036 40.1073 25.5601C41.6373 31.0092 38.1682 36.3355 36.8345 38.3401C36.6923 38.5428 36.5612 38.7531 36.4418 38.9701L36.3682 39.1255C36.3421 39.2991 36.3421 39.4756 36.3682 39.6492V39.8701C36.498 43.568 36.2236 47.269 35.55 50.9074C35.0836 53.1246 33.3491 57.3464 31.4427 59.1955Z" fill="#F2F2F2" fill-opacity="0.7"/>
<path d="M15.7336 60.1036L15.5127 59.2854C15.7217 59.2261 15.9204 59.1351 16.1018 59.0154C17.0018 58.4263 18.2372 56.6672 18.9572 51.6518C19.2204 49.7528 19.3788 47.8408 19.4318 45.9245C19.4118 45.5656 19.4652 45.2064 19.5888 44.8689C19.7124 44.5314 19.9035 44.2226 20.1505 43.9615C20.3975 43.7004 20.6951 43.4924 21.0252 43.3502C21.3553 43.2081 21.711 43.1348 22.0704 43.1348C22.4298 43.1348 22.7855 43.2081 23.1156 43.3502C23.4457 43.4924 23.7434 43.7004 23.9904 43.9615C24.2374 44.2226 24.4285 44.5314 24.5521 44.8689C24.6756 45.2064 24.7291 45.5656 24.7091 45.9245C24.7091 46.9227 24.9463 55.8163 27.5481 58.5736L26.9509 59.1381C24.1936 56.209 23.9236 47.6181 23.8909 45.9327C23.9076 45.6833 23.8729 45.4332 23.789 45.1978C23.7051 44.9625 23.5737 44.7468 23.403 44.5643C23.2324 44.3818 23.026 44.2363 22.7968 44.1368C22.5675 44.0373 22.3203 43.986 22.0704 43.986C21.8205 43.986 21.5733 44.0373 21.3441 44.1368C21.1148 44.2363 20.9085 44.3818 20.7378 44.5643C20.5671 44.7468 20.4357 44.9625 20.3518 45.1978C20.2679 45.4332 20.2332 45.6833 20.25 45.9327C20.1986 47.8956 20.0375 49.8541 19.7672 51.799C19.1536 56.0454 18.0654 58.7045 16.5518 59.7027C16.3005 59.8763 16.0248 60.0114 15.7336 60.1036Z" fill="#F2F2F2" fill-opacity="0.7"/>
<path d="M11.8637 58.451C11.201 57.6901 10.6501 56.8389 10.2273 55.9228C9.21625 53.825 8.55832 51.5748 8.28001 49.2628C7.9691 47.0291 7.68274 40.7128 7.71547 39.731C7.74306 39.1108 7.58033 38.497 7.24911 37.9719L7.01183 37.6364C6.82447 37.3048 6.61681 36.9851 6.39001 36.6791C4.4888 34.1652 3.52775 31.065 3.67365 27.9164C3.64585 26.0894 4.13359 24.2916 5.08092 22.7291C6.39354 20.7408 8.426 19.3389 10.7509 18.8182L10.9391 19.6364C8.82799 20.1025 6.97842 21.3658 5.77638 23.1628C4.9102 24.6042 4.4652 26.2595 4.49183 27.941C4.34694 30.9021 5.25085 33.8195 7.04456 36.1801C7.27975 36.507 7.49821 36.8456 7.69911 37.1946L7.91183 37.5464C8.3254 38.2097 8.52796 38.9828 8.49274 39.7637C8.49274 40.7291 8.74638 46.9473 9.04911 49.1564C9.31647 51.3779 9.94956 53.5398 10.9227 55.5546C11.319 56.4052 11.8372 57.1935 12.4609 57.8946L11.8637 58.451Z" fill="#F2F2F2" fill-opacity="0.7"/>
<path d="M13.5245 61.5518L12.7064 61.3227C13.05 60.1527 13.3445 59.2609 13.3445 59.2609C15.0145 52.7632 14.9467 45.9406 13.1482 39.4773C11.6673 34.0609 11.3645 27.2782 12.2727 19.3254L13.0909 19.4154C12.1991 27.2618 12.5018 33.9382 13.9745 39.2563C15.8167 45.8752 15.8816 52.8626 14.1627 59.5145C14.1627 59.5145 13.8518 60.4064 13.5245 61.5518Z" fill="#F2F2F2" fill-opacity="0.7"/>
<path d="M15.5454 13.5082C14.4285 13.578 13.3232 13.2473 12.4282 12.5755C12.3812 12.5399 12.3428 12.4942 12.3159 12.4418C12.289 12.3894 12.2743 12.3317 12.2727 12.2728L12.8372 3.89459C12.8583 3.52231 13.0146 3.17054 13.2768 2.90538C13.5389 2.64022 13.8889 2.47991 14.2609 2.45459C15.7642 2.44066 17.244 2.82757 18.5482 3.5755C18.8202 3.72607 19.0301 3.96801 19.1409 4.25849C19.2517 4.54898 19.2562 4.86929 19.1536 5.16277L17.6236 9.4664L16.2736 13.2546C16.2485 13.3311 16.2005 13.398 16.1361 13.4463C16.0717 13.4946 15.9941 13.5219 15.9136 13.5246L15.5454 13.5082ZM13.0909 12.0846C13.8549 12.5177 14.7252 12.7275 15.6027 12.69L18.3845 4.90913C18.4229 4.79733 18.4209 4.67565 18.3791 4.56511C18.3373 4.45457 18.2582 4.3621 18.1554 4.30368C16.9824 3.63065 15.6542 3.27531 14.3018 3.27277C14.1272 3.28467 13.963 3.36051 13.8408 3.48578C13.7185 3.61106 13.6467 3.77698 13.6391 3.95186L13.0909 12.0846Z" fill="#F2F2F2" fill-opacity="0.7"/>
<path d="M16.4269 4.82157L14.2837 11.3895L15.061 11.6432L17.2042 5.07521L16.4269 4.82157Z" fill="#F2F2F2" fill-opacity="0.7"/>
<path d="M25.6582 13.3445C25.2385 13.3463 24.8232 13.2599 24.4391 13.0909C21.7636 11.88 17.3945 10.1618 17.3536 10.1454L17.6482 9.38452C17.6973 9.38452 22.0827 11.1272 24.7827 12.3463C25.1103 12.4961 25.4712 12.5581 25.83 12.5263L31.4755 12.0845L31.5327 12.9027L25.8955 13.3445H25.6582Z" fill="#F2F2F2" fill-opacity="0.7"/>
<path d="M28.4645 9.06548C28.0554 9.0674 27.6507 8.98088 27.2781 8.81185L25.5272 8.0673L25.8381 7.31458C26.5172 7.59276 27.1227 7.85458 27.6054 8.0673C27.9877 8.23807 28.4126 8.2894 28.8245 8.21458L30.2154 7.98548L30.3463 8.80367L28.9636 9.00003C28.7991 9.03408 28.6322 9.05595 28.4645 9.06548Z" fill="#F2F2F2" fill-opacity="0.7"/>
<path d="M24.1364 7.49451C21.6 6.44724 18.8591 5.35905 18.8591 5.35087L19.1619 4.59814C19.1619 4.59814 21.911 5.69451 24.4473 6.7336L24.1364 7.49451Z" fill="#F2F2F2" fill-opacity="0.7"/>
<path d="M13.3936 19.7754H13.3445L12.0682 19.6363C12.011 19.6294 11.956 19.6106 11.9067 19.581C11.8573 19.5513 11.8148 19.5117 11.7818 19.4645C11.7492 19.4188 11.7265 19.3669 11.7152 19.3119C11.7039 19.2569 11.7043 19.2002 11.7163 19.1454L13.1073 12.6818L13.9254 12.8536L12.6245 18.8754L13.0745 18.9327C13.3691 17.5418 14.3918 13.5245 14.5227 13.0172L15.3409 13.2218C14.7682 15.4636 13.8927 18.949 13.8436 19.4318C13.8254 19.5396 13.7705 19.6379 13.6882 19.7099C13.6019 19.7685 13.4966 19.7919 13.3936 19.7754Z" fill="#F2F2F2" fill-opacity="0.7"/>
<path d="M29.3236 62.6401H28.5054C28.6117 60.4473 28.9717 57.5428 29.3236 54.4582C30.0926 48.4691 30.9272 41.7273 30.2726 37.6937C28.7917 29.201 33.1854 16.4619 33.3736 15.9219L34.1426 16.1919C34.1017 16.3228 29.6345 29.2828 31.0745 37.5546C31.7945 41.6455 30.9517 48.5101 30.2072 54.5319C29.7817 57.6001 29.4545 60.4882 29.3236 62.6401Z" fill="#F2F2F2" fill-opacity="0.7"/>
</svg>
