<svg width="25" height="25" viewBox="0 0 25 25" fill="none" xmlns="http://www.w3.org/2000/svg">
<path d="M20.7434 2.90743C19.4323 1.69736 17.6949 1.02012 15.8513 1.00045C14.5518 0.986476 13.2816 1.30044 12.173 1.90823C11.6967 2.16927 11.1051 2.16927 10.6287 1.90823C9.5201 1.30044 8.24895 0.98724 6.95037 1.0004C5.10677 1.02012 3.36936 1.69736 2.05813 2.90738C0.746999 4.11735 0.0161395 5.71787 0.000270332 7.41408C-0.0130597 8.83783 0.466823 10.1922 1.38806 11.3307C2.31687 12.4787 2.95066 13.8639 3.22092 15.3368C3.63118 17.5726 4.21399 19.6248 4.86204 21.1153C5.70603 23.0564 6.61638 24 7.64505 24C8.03001 24 8.38806 23.8566 8.68059 23.5853C9.67473 22.6634 10.0624 20.2358 10.0187 15.2062C10.0096 14.1677 10.5131 13.1981 11.4008 12.5437C12.2884 13.1978 12.792 14.1675 12.7829 15.2062C12.7392 20.2358 13.1269 22.6633 14.121 23.5853C14.4136 23.8566 14.7717 24 15.1566 24C16.1852 24 17.0956 23.0564 17.9395 21.1154C18.5876 19.6248 19.1704 17.5726 19.5806 15.3369C19.8509 13.864 20.4847 12.4787 21.4135 11.3308C22.3347 10.1923 22.8146 8.83788 22.8012 7.41417C22.7854 5.71796 22.0546 4.11744 20.7434 2.90743ZM20.6145 10.7836C19.592 12.0473 18.8949 13.569 18.5986 15.1843C17.6572 20.3151 16.1226 23.0837 15.1566 23.0837C15.0758 23.0837 14.9655 23.0673 14.8281 22.94C13.7207 21.9129 13.763 17.0457 13.7789 15.2135C13.7905 13.8874 13.1462 12.6504 12.0117 11.8199L11.9949 11.8076C11.82 11.6786 11.6104 11.6142 11.4008 11.6142C11.1912 11.6142 10.9815 11.6787 10.8065 11.8077L10.7903 11.8196C9.65545 12.6503 9.01116 13.8874 9.02268 15.2135C9.03855 17.0458 9.08084 21.913 7.97342 22.94C7.83606 23.0674 7.72576 23.0837 7.645 23.0837C6.67908 23.0837 5.14451 20.3152 4.203 15.1844C3.90662 13.5691 3.20955 12.0474 2.18704 10.7837C1.39661 9.80675 0.984841 8.64435 0.996267 7.42207C1.02439 4.42129 3.70061 1.95167 6.96184 1.91685C8.07586 1.90513 9.1677 2.17421 10.1188 2.69557C10.9095 3.12898 11.8919 3.12902 12.6827 2.69557C13.6337 2.17421 14.7261 1.90427 15.8397 1.91685C19.1011 1.95167 21.7773 4.42134 21.8053 7.42216C21.8168 8.64426 21.405 9.80671 20.6145 10.7836Z" fill="#1B4965"/>
<path d="M5.42079 4.47217C5.29702 4.22647 4.9975 4.12764 4.75195 4.25147C2.97656 5.1459 1.86303 6.92886 1.84609 8.90454C1.84374 9.17954 2.06474 9.40444 2.33984 9.40679C2.3413 9.40679 2.34277 9.40679 2.34423 9.40679C2.61723 9.40679 2.83974 9.18662 2.84208 8.91314C2.85585 7.31226 3.75942 5.8668 5.20009 5.14102C5.44575 5.01724 5.54453 4.71777 5.42079 4.47217Z" fill="#1B4965"/>
<path d="M7.04101 3.69356C6.88388 3.69542 6.72509 3.7044 6.56899 3.72032C6.2954 3.7482 6.09618 3.99264 6.12406 4.26622C6.15014 4.52271 6.36654 4.71378 6.61889 4.71378C6.63578 4.71378 6.65282 4.71295 6.66996 4.71119C6.79643 4.6983 6.92514 4.69103 7.05258 4.68951C7.32763 4.68634 7.54794 4.4607 7.54477 4.1857C7.54159 3.9107 7.31645 3.69103 7.04101 3.69356Z" fill="#1B4965"/>
</svg>
